<svg width="133" height="32" viewBox="0 0 133 32" fill="none" xmlns="http://www.w3.org/2000/svg">
<rect width="133" height="32" rx="16" fill="url(#paint0_linear_673_27187)"/>
<path d="M13.672 20.12C13.248 20.12 12.816 20.064 12.376 19.952C11.936 19.84 11.532 19.668 11.164 19.436C10.972 19.316 10.856 19.172 10.816 19.004C10.784 18.828 10.808 18.668 10.888 18.524C10.968 18.372 11.084 18.272 11.236 18.224C11.396 18.168 11.576 18.196 11.776 18.308C12.072 18.476 12.372 18.604 12.676 18.692C12.98 18.78 13.304 18.824 13.648 18.824C14.152 18.824 14.544 18.696 14.824 18.44C15.112 18.176 15.256 17.824 15.256 17.384C15.256 16.936 15.12 16.576 14.848 16.304C14.576 16.024 14.204 15.884 13.732 15.884C13.476 15.884 13.228 15.928 12.988 16.016C12.748 16.096 12.512 16.24 12.28 16.448C12.208 16.512 12.116 16.576 12.004 16.64C11.892 16.696 11.772 16.724 11.644 16.724C11.236 16.724 11.032 16.528 11.032 16.136V12.212C11.032 11.764 11.256 11.54 11.704 11.54H15.652C16.1 11.54 16.324 11.752 16.324 12.176C16.324 12.6 16.1 12.812 15.652 12.812H12.532V15.104C12.956 14.784 13.476 14.624 14.092 14.624C14.628 14.624 15.092 14.74 15.484 14.972C15.884 15.196 16.192 15.512 16.408 15.92C16.632 16.32 16.744 16.788 16.744 17.324C16.744 17.876 16.62 18.364 16.372 18.788C16.124 19.204 15.768 19.532 15.304 19.772C14.848 20.004 14.304 20.12 13.672 20.12ZM20.7953 20.12C19.7953 20.12 19.0313 19.744 18.5033 18.992C17.9753 18.232 17.7113 17.152 17.7113 15.752C17.7113 14.336 17.9753 13.26 18.5033 12.524C19.0313 11.788 19.7953 11.42 20.7953 11.42C21.8033 11.42 22.5673 11.788 23.0873 12.524C23.6153 13.26 23.8793 14.332 23.8793 15.74C23.8793 17.148 23.6153 18.232 23.0873 18.992C22.5593 19.744 21.7953 20.12 20.7953 20.12ZM20.7953 18.86C21.3393 18.86 21.7393 18.608 21.9953 18.104C22.2593 17.6 22.3913 16.812 22.3913 15.74C22.3913 14.668 22.2593 13.892 21.9953 13.412C21.7393 12.924 21.3393 12.68 20.7953 12.68C20.2593 12.68 19.8593 12.924 19.5953 13.412C19.3313 13.892 19.1993 14.668 19.1993 15.74C19.1993 16.812 19.3313 17.6 19.5953 18.104C19.8593 18.608 20.2593 18.86 20.7953 18.86ZM27.9906 20.12C26.9906 20.12 26.2266 19.744 25.6986 18.992C25.1706 18.232 24.9066 17.152 24.9066 15.752C24.9066 14.336 25.1706 13.26 25.6986 12.524C26.2266 11.788 26.9906 11.42 27.9906 11.42C28.9986 11.42 29.7626 11.788 30.2826 12.524C30.8106 13.26 31.0746 14.332 31.0746 15.74C31.0746 17.148 30.8106 18.232 30.2826 18.992C29.7546 19.744 28.9906 20.12 27.9906 20.12ZM27.9906 18.86C28.5346 18.86 28.9346 18.608 29.1906 18.104C29.4546 17.6 29.5866 16.812 29.5866 15.74C29.5866 14.668 29.4546 13.892 29.1906 13.412C28.9346 12.924 28.5346 12.68 27.9906 12.68C27.4546 12.68 27.0546 12.924 26.7906 13.412C26.5266 13.892 26.3946 14.668 26.3946 15.74C26.3946 16.812 26.5266 17.6 26.7906 18.104C27.0546 18.608 27.4546 18.86 27.9906 18.86ZM35.1859 19.616C34.8179 19.616 34.6339 19.428 34.6339 19.052V17.084H32.7019C32.3419 17.084 32.1619 16.908 32.1619 16.556C32.1619 16.204 32.3419 16.028 32.7019 16.028H34.6339V14.12C34.6339 13.752 34.8179 13.568 35.1859 13.568C35.5539 13.568 35.7379 13.752 35.7379 14.12V16.028H37.6699C38.0299 16.028 38.2099 16.204 38.2099 16.556C38.2099 16.908 38.0299 17.084 37.6699 17.084H35.7379V19.052C35.7379 19.428 35.5539 19.616 35.1859 19.616Z" fill="#212529"/>
<path d="M48.28 19.07C48.0067 19.07 47.87 18.9267 47.87 18.64V12.31C47.87 12.0233 48.0067 11.88 48.28 11.88C48.5533 11.88 48.69 12.0233 48.69 12.31V15.07H52.92V12.31C52.92 12.0233 53.0567 11.88 53.33 11.88C53.6033 11.88 53.74 12.0233 53.74 12.31V18.64C53.74 18.9267 53.6033 19.07 53.33 19.07C53.0567 19.07 52.92 18.9267 52.92 18.64V15.78H48.69V18.64C48.69 18.9267 48.5533 19.07 48.28 19.07ZM56.8974 19.09C56.5641 19.09 56.2641 19.0267 55.9974 18.9C55.7374 18.7667 55.5308 18.5867 55.3774 18.36C55.2241 18.1333 55.1474 17.88 55.1474 17.6C55.1474 17.2467 55.2374 16.9667 55.4174 16.76C55.6041 16.5533 55.9074 16.4067 56.3274 16.32C56.7541 16.2267 57.3341 16.18 58.0674 16.18H58.3874V15.87C58.3874 15.4567 58.3008 15.16 58.1274 14.98C57.9608 14.7933 57.6908 14.7 57.3174 14.7C57.0841 14.7 56.8474 14.73 56.6074 14.79C56.3741 14.85 56.1308 14.9467 55.8774 15.08C55.7641 15.14 55.6674 15.1533 55.5874 15.12C55.5141 15.08 55.4608 15.02 55.4274 14.94C55.4008 14.8533 55.4008 14.7667 55.4274 14.68C55.4608 14.5867 55.5274 14.5167 55.6274 14.47C55.9141 14.3233 56.2008 14.2167 56.4874 14.15C56.7808 14.0833 57.0574 14.05 57.3174 14.05C57.9441 14.05 58.4074 14.2033 58.7074 14.51C59.0141 14.8167 59.1674 15.2933 59.1674 15.94V18.65C59.1674 18.93 59.0441 19.07 58.7974 19.07C58.5374 19.07 58.4074 18.93 58.4074 18.65V18.16C58.2808 18.4467 58.0841 18.6733 57.8174 18.84C57.5574 19.0067 57.2508 19.09 56.8974 19.09ZM57.0274 18.48C57.4274 18.48 57.7541 18.3433 58.0074 18.07C58.2608 17.79 58.3874 17.4367 58.3874 17.01V16.71H58.0774C57.5374 16.71 57.1108 16.7367 56.7974 16.79C56.4908 16.8367 56.2741 16.9233 56.1474 17.05C56.0274 17.17 55.9674 17.3367 55.9674 17.55C55.9674 17.8233 56.0608 18.0467 56.2474 18.22C56.4408 18.3933 56.7008 18.48 57.0274 18.48ZM61.0702 20.87C60.8035 20.87 60.6702 20.7333 60.6702 20.46V14.48C60.6702 14.2067 60.8002 14.07 61.0602 14.07C61.3335 14.07 61.4702 14.2067 61.4702 14.48V15C61.6102 14.7067 61.8268 14.4767 62.1202 14.31C62.4135 14.1367 62.7502 14.05 63.1302 14.05C63.5635 14.05 63.9402 14.1533 64.2602 14.36C64.5868 14.56 64.8368 14.85 65.0102 15.23C65.1902 15.6033 65.2802 16.05 65.2802 16.57C65.2802 17.0833 65.1902 17.53 65.0102 17.91C64.8368 18.2833 64.5868 18.5733 64.2602 18.78C63.9402 18.9867 63.5635 19.09 63.1302 19.09C62.7568 19.09 62.4235 19.0067 62.1302 18.84C61.8368 18.6733 61.6202 18.4433 61.4802 18.15V20.46C61.4802 20.7333 61.3435 20.87 61.0702 20.87ZM62.9602 18.44C63.4135 18.44 63.7768 18.28 64.0502 17.96C64.3235 17.6333 64.4602 17.17 64.4602 16.57C64.4602 15.9633 64.3235 15.5 64.0502 15.18C63.7768 14.86 63.4135 14.7 62.9602 14.7C62.5068 14.7 62.1435 14.86 61.8702 15.18C61.5968 15.5 61.4602 15.9633 61.4602 16.57C61.4602 17.17 61.5968 17.6333 61.8702 17.96C62.1435 18.28 62.5068 18.44 62.9602 18.44ZM66.9002 20.87C66.6336 20.87 66.5002 20.7333 66.5002 20.46V14.48C66.5002 14.2067 66.6302 14.07 66.8902 14.07C67.1636 14.07 67.3002 14.2067 67.3002 14.48V15C67.4402 14.7067 67.6569 14.4767 67.9502 14.31C68.2436 14.1367 68.5802 14.05 68.9602 14.05C69.3936 14.05 69.7702 14.1533 70.0902 14.36C70.4169 14.56 70.6669 14.85 70.8402 15.23C71.0202 15.6033 71.1102 16.05 71.1102 16.57C71.1102 17.0833 71.0202 17.53 70.8402 17.91C70.6669 18.2833 70.4169 18.5733 70.0902 18.78C69.7702 18.9867 69.3936 19.09 68.9602 19.09C68.5869 19.09 68.2536 19.0067 67.9602 18.84C67.6669 18.6733 67.4502 18.4433 67.3102 18.15V20.46C67.3102 20.7333 67.1736 20.87 66.9002 20.87ZM68.7902 18.44C69.2436 18.44 69.6069 18.28 69.8802 17.96C70.1536 17.6333 70.2902 17.17 70.2902 16.57C70.2902 15.9633 70.1536 15.5 69.8802 15.18C69.6069 14.86 69.2436 14.7 68.7902 14.7C68.3369 14.7 67.9736 14.86 67.7002 15.18C67.4269 15.5 67.2902 15.9633 67.2902 16.57C67.2902 17.17 67.4269 17.6333 67.7002 17.96C67.9736 18.28 68.3369 18.44 68.7902 18.44ZM73.342 20.87C73.1886 20.87 73.0853 20.81 73.032 20.69C72.9786 20.5767 72.982 20.4467 73.042 20.3L73.652 18.92L71.812 14.64C71.7453 14.4867 71.742 14.3533 71.802 14.24C71.8686 14.1267 71.992 14.07 72.172 14.07C72.3586 14.07 72.4953 14.1767 72.582 14.39L74.092 18.08L75.612 14.39C75.6653 14.27 75.722 14.1867 75.782 14.14C75.842 14.0933 75.9286 14.07 76.042 14.07C76.1953 14.07 76.2986 14.1267 76.352 14.24C76.4053 14.3533 76.402 14.4833 76.342 14.63L73.782 20.55C73.7286 20.67 73.6686 20.7533 73.602 20.8C73.542 20.8467 73.4553 20.87 73.342 20.87ZM83.1368 19.09C82.4435 19.09 81.8501 18.9433 81.3568 18.65C80.8635 18.3567 80.4835 17.94 80.2168 17.4C79.9568 16.86 79.8268 16.2167 79.8268 15.47C79.8268 14.73 79.9568 14.09 80.2168 13.55C80.4835 13.01 80.8635 12.5933 81.3568 12.3C81.8501 12.0067 82.4435 11.86 83.1368 11.86C83.5501 11.86 83.9435 11.92 84.3168 12.04C84.6901 12.16 85.0135 12.33 85.2868 12.55C85.4001 12.63 85.4635 12.7233 85.4768 12.83C85.4968 12.9367 85.4801 13.0333 85.4268 13.12C85.3735 13.2 85.2968 13.2533 85.1968 13.28C85.1035 13.3 84.9968 13.2667 84.8768 13.18C84.4035 12.8 83.8301 12.61 83.1568 12.61C82.3635 12.61 81.7568 12.86 81.3368 13.36C80.9168 13.86 80.7068 14.5633 80.7068 15.47C80.7068 16.3833 80.9168 17.09 81.3368 17.59C81.7568 18.09 82.3635 18.34 83.1568 18.34C83.8301 18.34 84.4101 18.1467 84.8968 17.76C85.0168 17.68 85.1235 17.65 85.2168 17.67C85.3168 17.69 85.3901 17.74 85.4368 17.82C85.4901 17.9 85.5101 17.99 85.4968 18.09C85.4835 18.19 85.4268 18.28 85.3268 18.36C85.0401 18.6 84.7101 18.7833 84.3368 18.91C83.9635 19.03 83.5635 19.09 83.1368 19.09ZM88.3179 19.09C87.1512 19.09 86.5679 18.4467 86.5679 17.16V14.48C86.5679 14.2067 86.7012 14.07 86.9679 14.07C87.2412 14.07 87.3779 14.2067 87.3779 14.48V17.15C87.3779 17.5833 87.4646 17.9033 87.6379 18.11C87.8179 18.3167 88.0979 18.42 88.4779 18.42C88.8912 18.42 89.2279 18.2833 89.4879 18.01C89.7479 17.73 89.8779 17.36 89.8779 16.9V14.48C89.8779 14.2067 90.0146 14.07 90.2879 14.07C90.5546 14.07 90.6879 14.2067 90.6879 14.48V18.65C90.6879 18.93 90.5579 19.07 90.2979 19.07C90.0312 19.07 89.8979 18.93 89.8979 18.65V18.18C89.7446 18.4733 89.5279 18.7 89.2479 18.86C88.9746 19.0133 88.6646 19.09 88.3179 19.09ZM93.8434 19.09C93.5434 19.09 93.24 19.0533 92.9334 18.98C92.6334 18.9 92.3534 18.7733 92.0934 18.6C91.9734 18.5267 91.9134 18.4333 91.9134 18.32C91.92 18.2 91.9667 18.1067 92.0534 18.04C92.14 17.9733 92.25 17.9733 92.3834 18.04C92.6434 18.2 92.8934 18.3133 93.1334 18.38C93.38 18.44 93.6234 18.47 93.8634 18.47C94.2434 18.47 94.53 18.4 94.7234 18.26C94.9167 18.12 95.0134 17.93 95.0134 17.69C95.0134 17.5033 94.95 17.3567 94.8234 17.25C94.6967 17.1367 94.4967 17.05 94.2234 16.99L93.3134 16.79C92.4867 16.61 92.0734 16.1833 92.0734 15.51C92.0734 15.07 92.2467 14.7167 92.5934 14.45C92.9467 14.1833 93.4067 14.05 93.9734 14.05C94.26 14.05 94.5367 14.09 94.8034 14.17C95.07 14.2433 95.31 14.3633 95.5234 14.53C95.6367 14.61 95.6867 14.7067 95.6734 14.82C95.66 14.9333 95.6067 15.0233 95.5134 15.09C95.4267 15.15 95.32 15.14 95.1934 15.06C94.9934 14.9267 94.79 14.83 94.5834 14.77C94.3767 14.7033 94.1734 14.67 93.9734 14.67C93.6 14.67 93.3167 14.7433 93.1234 14.89C92.93 15.0367 92.8334 15.23 92.8334 15.47C92.8334 15.8433 93.08 16.0833 93.5734 16.19L94.4834 16.38C94.91 16.4733 95.2334 16.6233 95.4534 16.83C95.6734 17.03 95.7834 17.3033 95.7834 17.65C95.7834 18.0967 95.6067 18.45 95.2534 18.71C94.9 18.9633 94.43 19.09 93.8434 19.09ZM98.919 19.09C98.3457 19.09 97.9157 18.94 97.629 18.64C97.3423 18.3333 97.199 17.8933 97.199 17.32V14.77H96.529C96.2957 14.77 96.179 14.6633 96.179 14.45C96.179 14.2433 96.2957 14.14 96.529 14.14H97.199V12.99C97.199 12.7167 97.3357 12.58 97.609 12.58C97.8757 12.58 98.009 12.7167 98.009 12.99V14.14H99.269C99.5023 14.14 99.619 14.2433 99.619 14.45C99.619 14.6633 99.5023 14.77 99.269 14.77H98.009V17.24C98.009 17.62 98.089 17.91 98.249 18.11C98.409 18.3033 98.669 18.4 99.029 18.4C99.1557 18.4 99.2623 18.3867 99.349 18.36C99.4357 18.3333 99.5123 18.32 99.579 18.32C99.639 18.3133 99.689 18.3333 99.729 18.38C99.769 18.4267 99.789 18.5067 99.789 18.62C99.789 18.7 99.7723 18.7733 99.739 18.84C99.7123 18.9067 99.6623 18.9533 99.589 18.98C99.509 19.0067 99.4023 19.03 99.269 19.05C99.1423 19.0767 99.0257 19.09 98.919 19.09ZM102.436 19.09C101.963 19.09 101.553 18.9867 101.206 18.78C100.86 18.5733 100.59 18.2833 100.396 17.91C100.21 17.53 100.116 17.0833 100.116 16.57C100.116 16.0567 100.21 15.6133 100.396 15.24C100.59 14.86 100.86 14.5667 101.206 14.36C101.553 14.1533 101.963 14.05 102.436 14.05C102.903 14.05 103.31 14.1533 103.656 14.36C104.01 14.5667 104.28 14.86 104.466 15.24C104.66 15.6133 104.756 16.0567 104.756 16.57C104.756 17.0833 104.66 17.53 104.466 17.91C104.28 18.2833 104.01 18.5733 103.656 18.78C103.31 18.9867 102.903 19.09 102.436 19.09ZM102.436 18.44C102.89 18.44 103.253 18.28 103.526 17.96C103.8 17.6333 103.936 17.17 103.936 16.57C103.936 15.9633 103.8 15.5 103.526 15.18C103.253 14.86 102.89 14.7 102.436 14.7C101.976 14.7 101.61 14.86 101.336 15.18C101.07 15.5 100.936 15.9633 100.936 16.57C100.936 17.17 101.07 17.6333 101.336 17.96C101.61 18.28 101.976 18.44 102.436 18.44ZM106.393 19.07C106.126 19.07 105.993 18.93 105.993 18.65V14.48C105.993 14.2067 106.123 14.07 106.383 14.07C106.65 14.07 106.783 14.2067 106.783 14.48V14.96C106.93 14.6667 107.133 14.4433 107.393 14.29C107.653 14.13 107.956 14.05 108.303 14.05C109.063 14.05 109.55 14.38 109.763 15.04C109.91 14.7333 110.126 14.4933 110.413 14.32C110.7 14.14 111.03 14.05 111.403 14.05C112.483 14.05 113.023 14.69 113.023 15.97V18.65C113.023 18.93 112.886 19.07 112.613 19.07C112.346 19.07 112.213 18.93 112.213 18.65V16.01C112.213 15.5633 112.133 15.2367 111.973 15.03C111.82 14.8167 111.563 14.71 111.203 14.71C110.81 14.71 110.496 14.85 110.263 15.13C110.03 15.41 109.913 15.7833 109.913 16.25V18.65C109.913 18.93 109.776 19.07 109.503 19.07C109.236 19.07 109.103 18.93 109.103 18.65V16.01C109.103 15.5633 109.023 15.2367 108.863 15.03C108.71 14.8167 108.453 14.71 108.093 14.71C107.693 14.71 107.376 14.85 107.143 15.13C106.916 15.41 106.803 15.7833 106.803 16.25V18.65C106.803 18.93 106.666 19.07 106.393 19.07ZM114.947 19.07C114.674 19.07 114.537 18.93 114.537 18.65V14.48C114.537 14.2067 114.667 14.07 114.927 14.07C115.194 14.07 115.327 14.2067 115.327 14.48V15.01C115.461 14.7033 115.667 14.47 115.947 14.31C116.227 14.1433 116.561 14.0533 116.947 14.04C117.161 14.02 117.274 14.1267 117.287 14.36C117.307 14.5933 117.187 14.7233 116.927 14.75L116.767 14.77C116.307 14.81 115.957 14.9567 115.717 15.21C115.477 15.4567 115.357 15.7967 115.357 16.23V18.65C115.357 18.93 115.221 19.07 114.947 19.07ZM119.713 19.09C119.413 19.09 119.109 19.0533 118.803 18.98C118.503 18.9 118.223 18.7733 117.963 18.6C117.843 18.5267 117.783 18.4333 117.783 18.32C117.789 18.2 117.836 18.1067 117.923 18.04C118.009 17.9733 118.119 17.9733 118.253 18.04C118.513 18.2 118.763 18.3133 119.003 18.38C119.249 18.44 119.493 18.47 119.733 18.47C120.113 18.47 120.399 18.4 120.593 18.26C120.786 18.12 120.883 17.93 120.883 17.69C120.883 17.5033 120.819 17.3567 120.693 17.25C120.566 17.1367 120.366 17.05 120.093 16.99L119.183 16.79C118.356 16.61 117.943 16.1833 117.943 15.51C117.943 15.07 118.116 14.7167 118.463 14.45C118.816 14.1833 119.276 14.05 119.843 14.05C120.129 14.05 120.406 14.09 120.673 14.17C120.939 14.2433 121.179 14.3633 121.393 14.53C121.506 14.61 121.556 14.7067 121.543 14.82C121.529 14.9333 121.476 15.0233 121.383 15.09C121.296 15.15 121.189 15.14 121.063 15.06C120.863 14.9267 120.659 14.83 120.453 14.77C120.246 14.7033 120.043 14.67 119.843 14.67C119.469 14.67 119.186 14.7433 118.993 14.89C118.799 15.0367 118.703 15.23 118.703 15.47C118.703 15.8433 118.949 16.0833 119.443 16.19L120.353 16.38C120.779 16.4733 121.103 16.6233 121.323 16.83C121.543 17.03 121.653 17.3033 121.653 17.65C121.653 18.0967 121.476 18.45 121.123 18.71C120.769 18.9633 120.299 19.09 119.713 19.09Z" fill="#212529"/>
<defs>
<linearGradient id="paint0_linear_673_27187" x1="66.5" y1="0" x2="66.5" y2="32" gradientUnits="userSpaceOnUse">
<stop stop-color="#FFF8F1"/>
<stop offset="1" stop-color="#CBE5CE"/>
</linearGradient>
</defs>
</svg>
