<svg width="128" height="32" viewBox="0 0 128 32" fill="none" xmlns="http://www.w3.org/2000/svg">
<rect width="128" height="32" rx="16" fill="url(#paint0_linear_673_27191)"/>
<path d="M13.6 20.12C12.616 20.12 11.844 19.908 11.284 19.484C10.732 19.06 10.456 18.472 10.456 17.72C10.456 17.208 10.588 16.772 10.852 16.412C11.124 16.052 11.476 15.8 11.908 15.656C11.524 15.488 11.22 15.232 10.996 14.888C10.78 14.544 10.672 14.148 10.672 13.7C10.672 12.988 10.936 12.432 11.464 12.032C11.992 11.624 12.704 11.42 13.6 11.42C14.504 11.42 15.22 11.624 15.748 12.032C16.276 12.432 16.54 12.988 16.54 13.7C16.54 14.148 16.428 14.548 16.204 14.9C15.988 15.244 15.692 15.496 15.316 15.656C15.748 15.8 16.092 16.056 16.348 16.424C16.612 16.784 16.744 17.216 16.744 17.72C16.744 18.472 16.464 19.06 15.904 19.484C15.352 19.908 14.584 20.12 13.6 20.12ZM13.6 15.116C14.072 15.116 14.44 15.004 14.704 14.78C14.976 14.556 15.112 14.248 15.112 13.856C15.112 13.472 14.976 13.172 14.704 12.956C14.44 12.732 14.072 12.62 13.6 12.62C13.128 12.62 12.76 12.732 12.496 12.956C12.232 13.172 12.1 13.472 12.1 13.856C12.1 14.248 12.232 14.556 12.496 14.78C12.76 15.004 13.128 15.116 13.6 15.116ZM13.6 18.92C14.744 18.92 15.316 18.484 15.316 17.612C15.316 16.748 14.744 16.316 13.6 16.316C13.04 16.316 12.612 16.424 12.316 16.64C12.028 16.856 11.884 17.18 11.884 17.612C11.884 18.044 12.028 18.372 12.316 18.596C12.612 18.812 13.04 18.92 13.6 18.92ZM20.7953 20.12C19.7953 20.12 19.0313 19.744 18.5033 18.992C17.9753 18.232 17.7113 17.152 17.7113 15.752C17.7113 14.336 17.9753 13.26 18.5033 12.524C19.0313 11.788 19.7953 11.42 20.7953 11.42C21.8033 11.42 22.5673 11.788 23.0873 12.524C23.6153 13.26 23.8793 14.332 23.8793 15.74C23.8793 17.148 23.6153 18.232 23.0873 18.992C22.5593 19.744 21.7953 20.12 20.7953 20.12ZM20.7953 18.86C21.3393 18.86 21.7393 18.608 21.9953 18.104C22.2593 17.6 22.3913 16.812 22.3913 15.74C22.3913 14.668 22.2593 13.892 21.9953 13.412C21.7393 12.924 21.3393 12.68 20.7953 12.68C20.2593 12.68 19.8593 12.924 19.5953 13.412C19.3313 13.892 19.1993 14.668 19.1993 15.74C19.1993 16.812 19.3313 17.6 19.5953 18.104C19.8593 18.608 20.2593 18.86 20.7953 18.86ZM27.9906 20.12C26.9906 20.12 26.2266 19.744 25.6986 18.992C25.1706 18.232 24.9066 17.152 24.9066 15.752C24.9066 14.336 25.1706 13.26 25.6986 12.524C26.2266 11.788 26.9906 11.42 27.9906 11.42C28.9986 11.42 29.7626 11.788 30.2826 12.524C30.8106 13.26 31.0746 14.332 31.0746 15.74C31.0746 17.148 30.8106 18.232 30.2826 18.992C29.7546 19.744 28.9906 20.12 27.9906 20.12ZM27.9906 18.86C28.5346 18.86 28.9346 18.608 29.1906 18.104C29.4546 17.6 29.5866 16.812 29.5866 15.74C29.5866 14.668 29.4546 13.892 29.1906 13.412C28.9346 12.924 28.5346 12.68 27.9906 12.68C27.4546 12.68 27.0546 12.924 26.7906 13.412C26.5266 13.892 26.3946 14.668 26.3946 15.74C26.3946 16.812 26.5266 17.6 26.7906 18.104C27.0546 18.608 27.4546 18.86 27.9906 18.86ZM35.1859 19.616C34.8179 19.616 34.6339 19.428 34.6339 19.052V17.084H32.7019C32.3419 17.084 32.1619 16.908 32.1619 16.556C32.1619 16.204 32.3419 16.028 32.7019 16.028H34.6339V14.12C34.6339 13.752 34.8179 13.568 35.1859 13.568C35.5539 13.568 35.7379 13.752 35.7379 14.12V16.028H37.6699C38.0299 16.028 38.2099 16.204 38.2099 16.556C38.2099 16.908 38.0299 17.084 37.6699 17.084H35.7379V19.052C35.7379 19.428 35.5539 19.616 35.1859 19.616Z" fill="#212529"/>
<path d="M51.09 19.09C49.9567 19.09 49.0933 18.77 48.5 18.13C47.9067 17.49 47.61 16.6067 47.61 15.48C47.61 14.7333 47.7433 14.09 48.01 13.55C48.2767 13.01 48.66 12.5933 49.16 12.3C49.66 12.0067 50.2633 11.86 50.97 11.86C51.39 11.86 51.7967 11.92 52.19 12.04C52.5833 12.1533 52.9333 12.3367 53.24 12.59C53.3333 12.6567 53.3867 12.74 53.4 12.84C53.4133 12.9333 53.3933 13.0233 53.34 13.11C53.2933 13.19 53.2233 13.2433 53.13 13.27C53.0433 13.2967 52.95 13.2767 52.85 13.21C52.5767 12.9967 52.2867 12.8433 51.98 12.75C51.6733 12.65 51.3333 12.6 50.96 12.6C50.16 12.6 49.5467 12.8533 49.12 13.36C48.6933 13.86 48.48 14.5667 48.48 15.48C48.48 16.4133 48.7 17.1267 49.14 17.62C49.58 18.1133 50.2367 18.36 51.11 18.36C51.6767 18.36 52.22 18.2633 52.74 18.07V15.98H51.31C51.07 15.98 50.95 15.87 50.95 15.65C50.95 15.4367 51.07 15.33 51.31 15.33H53.1C53.3333 15.33 53.45 15.4467 53.45 15.68V18.29C53.45 18.4967 53.3767 18.63 53.23 18.69C52.95 18.81 52.6133 18.9067 52.22 18.98C51.8333 19.0533 51.4567 19.09 51.09 19.09ZM56.5459 19.09C56.2125 19.09 55.9125 19.0267 55.6459 18.9C55.3859 18.7667 55.1792 18.5867 55.0259 18.36C54.8725 18.1333 54.7959 17.88 54.7959 17.6C54.7959 17.2467 54.8859 16.9667 55.0659 16.76C55.2525 16.5533 55.5559 16.4067 55.9759 16.32C56.4025 16.2267 56.9825 16.18 57.7159 16.18H58.0359V15.87C58.0359 15.4567 57.9492 15.16 57.7759 14.98C57.6092 14.7933 57.3392 14.7 56.9659 14.7C56.7325 14.7 56.4959 14.73 56.2559 14.79C56.0225 14.85 55.7792 14.9467 55.5259 15.08C55.4125 15.14 55.3159 15.1533 55.2359 15.12C55.1625 15.08 55.1092 15.02 55.0759 14.94C55.0492 14.8533 55.0492 14.7667 55.0759 14.68C55.1092 14.5867 55.1759 14.5167 55.2759 14.47C55.5625 14.3233 55.8492 14.2167 56.1359 14.15C56.4292 14.0833 56.7059 14.05 56.9659 14.05C57.5925 14.05 58.0559 14.2033 58.3559 14.51C58.6625 14.8167 58.8159 15.2933 58.8159 15.94V18.65C58.8159 18.93 58.6925 19.07 58.4459 19.07C58.1859 19.07 58.0559 18.93 58.0559 18.65V18.16C57.9292 18.4467 57.7325 18.6733 57.4659 18.84C57.2059 19.0067 56.8992 19.09 56.5459 19.09ZM56.6759 18.48C57.0759 18.48 57.4025 18.3433 57.6559 18.07C57.9092 17.79 58.0359 17.4367 58.0359 17.01V16.71H57.7259C57.1859 16.71 56.7592 16.7367 56.4459 16.79C56.1392 16.8367 55.9225 16.9233 55.7959 17.05C55.6759 17.17 55.6159 17.3367 55.6159 17.55C55.6159 17.8233 55.7092 18.0467 55.8959 18.22C56.0892 18.3933 56.3492 18.48 56.6759 18.48ZM60.7286 19.07C60.4553 19.07 60.3186 18.93 60.3186 18.65V14.48C60.3186 14.2067 60.4486 14.07 60.7086 14.07C60.9753 14.07 61.1086 14.2067 61.1086 14.48V15.01C61.2419 14.7033 61.4486 14.47 61.7286 14.31C62.0086 14.1433 62.3419 14.0533 62.7286 14.04C62.9419 14.02 63.0553 14.1267 63.0686 14.36C63.0886 14.5933 62.9686 14.7233 62.7086 14.75L62.5486 14.77C62.0886 14.81 61.7386 14.9567 61.4986 15.21C61.2586 15.4567 61.1386 15.7967 61.1386 16.23V18.65C61.1386 18.93 61.0019 19.07 60.7286 19.07ZM65.694 19.09C65.2607 19.09 64.8807 18.9867 64.554 18.78C64.234 18.5733 63.984 18.2833 63.804 17.91C63.6307 17.53 63.544 17.0833 63.544 16.57C63.544 16.05 63.6307 15.6033 63.804 15.23C63.984 14.85 64.234 14.56 64.554 14.36C64.8807 14.1533 65.2607 14.05 65.694 14.05C66.074 14.05 66.4073 14.1333 66.694 14.3C66.9873 14.4667 67.204 14.6967 67.344 14.99V12.29C67.344 12.0167 67.4807 11.88 67.754 11.88C68.0207 11.88 68.154 12.0167 68.154 12.29V18.65C68.154 18.93 68.0207 19.07 67.754 19.07C67.4873 19.07 67.354 18.93 67.354 18.65V18.13C67.2073 18.43 66.9873 18.6667 66.694 18.84C66.4073 19.0067 66.074 19.09 65.694 19.09ZM65.864 18.44C66.3173 18.44 66.6807 18.28 66.954 17.96C67.2273 17.6333 67.364 17.17 67.364 16.57C67.364 15.9633 67.2273 15.5 66.954 15.18C66.6807 14.86 66.3173 14.7 65.864 14.7C65.404 14.7 65.0373 14.86 64.764 15.18C64.4973 15.5 64.364 15.9633 64.364 16.57C64.364 17.17 64.4973 17.6333 64.764 17.96C65.0373 18.28 65.404 18.44 65.864 18.44ZM71.8641 19.09C71.0974 19.09 70.4907 18.8667 70.0441 18.42C69.5974 17.9667 69.3741 17.3533 69.3741 16.58C69.3741 16.08 69.4741 15.64 69.6741 15.26C69.8741 14.8733 70.1474 14.5767 70.4941 14.37C70.8474 14.1567 71.2541 14.05 71.7141 14.05C72.3741 14.05 72.8907 14.2633 73.2641 14.69C73.6374 15.11 73.8241 15.69 73.8241 16.43C73.8241 16.6367 73.7074 16.74 73.4741 16.74H70.1641C70.1907 17.2933 70.3507 17.7167 70.6441 18.01C70.9374 18.2967 71.3441 18.44 71.8641 18.44C72.0841 18.44 72.3074 18.4133 72.5341 18.36C72.7607 18.3 72.9807 18.1967 73.1941 18.05C73.3474 17.95 73.4741 17.93 73.5741 17.99C73.6807 18.05 73.7341 18.1433 73.7341 18.27C73.7407 18.39 73.6741 18.4967 73.5341 18.59C73.3141 18.75 73.0507 18.8733 72.7441 18.96C72.4441 19.0467 72.1507 19.09 71.8641 19.09ZM71.7341 14.65C71.2741 14.65 70.9107 14.7933 70.6441 15.08C70.3774 15.3667 70.2207 15.7433 70.1741 16.21H73.1241C73.1041 15.7167 72.9741 15.3333 72.7341 15.06C72.5007 14.7867 72.1674 14.65 71.7341 14.65ZM75.3963 19.07C75.1297 19.07 74.9963 18.93 74.9963 18.65V14.48C74.9963 14.2067 75.1263 14.07 75.3863 14.07C75.653 14.07 75.7863 14.2067 75.7863 14.48V14.97C75.9463 14.6633 76.173 14.4333 76.4663 14.28C76.7597 14.1267 77.0897 14.05 77.4563 14.05C78.6097 14.05 79.1863 14.69 79.1863 15.97V18.65C79.1863 18.93 79.053 19.07 78.7863 19.07C78.513 19.07 78.3763 18.93 78.3763 18.65V16.02C78.3763 15.5667 78.2863 15.2367 78.1063 15.03C77.933 14.8167 77.653 14.71 77.2663 14.71C76.8197 14.71 76.463 14.85 76.1963 15.13C75.9363 15.4033 75.8063 15.77 75.8063 16.23V18.65C75.8063 18.93 75.6697 19.07 75.3963 19.07ZM86.418 19.09C85.7247 19.09 85.1314 18.9433 84.638 18.65C84.1447 18.3567 83.7647 17.94 83.498 17.4C83.238 16.86 83.108 16.2167 83.108 15.47C83.108 14.73 83.238 14.09 83.498 13.55C83.7647 13.01 84.1447 12.5933 84.638 12.3C85.1314 12.0067 85.7247 11.86 86.418 11.86C86.8314 11.86 87.2247 11.92 87.598 12.04C87.9714 12.16 88.2947 12.33 88.568 12.55C88.6814 12.63 88.7447 12.7233 88.758 12.83C88.778 12.9367 88.7614 13.0333 88.708 13.12C88.6547 13.2 88.578 13.2533 88.478 13.28C88.3847 13.3 88.278 13.2667 88.158 13.18C87.6847 12.8 87.1114 12.61 86.438 12.61C85.6447 12.61 85.038 12.86 84.618 13.36C84.198 13.86 83.988 14.5633 83.988 15.47C83.988 16.3833 84.198 17.09 84.618 17.59C85.038 18.09 85.6447 18.34 86.438 18.34C87.1114 18.34 87.6914 18.1467 88.178 17.76C88.298 17.68 88.4047 17.65 88.498 17.67C88.598 17.69 88.6714 17.74 88.718 17.82C88.7714 17.9 88.7914 17.99 88.778 18.09C88.7647 18.19 88.708 18.28 88.608 18.36C88.3214 18.6 87.9914 18.7833 87.618 18.91C87.2447 19.03 86.8447 19.09 86.418 19.09ZM90.3966 19.07C90.1232 19.07 89.9866 18.93 89.9866 18.65V14.48C89.9866 14.2067 90.1166 14.07 90.3766 14.07C90.6432 14.07 90.7766 14.2067 90.7766 14.48V15.01C90.9099 14.7033 91.1166 14.47 91.3966 14.31C91.6766 14.1433 92.0099 14.0533 92.3966 14.04C92.6099 14.02 92.7232 14.1267 92.7366 14.36C92.7566 14.5933 92.6366 14.7233 92.3766 14.75L92.2166 14.77C91.7566 14.81 91.4066 14.9567 91.1666 15.21C90.9266 15.4567 90.8066 15.7967 90.8066 16.23V18.65C90.8066 18.93 90.6699 19.07 90.3966 19.07ZM95.702 19.09C94.9353 19.09 94.3286 18.8667 93.882 18.42C93.4353 17.9667 93.212 17.3533 93.212 16.58C93.212 16.08 93.312 15.64 93.512 15.26C93.712 14.8733 93.9853 14.5767 94.332 14.37C94.6853 14.1567 95.092 14.05 95.552 14.05C96.212 14.05 96.7286 14.2633 97.102 14.69C97.4753 15.11 97.662 15.69 97.662 16.43C97.662 16.6367 97.5453 16.74 97.312 16.74H94.002C94.0286 17.2933 94.1886 17.7167 94.482 18.01C94.7753 18.2967 95.182 18.44 95.702 18.44C95.922 18.44 96.1453 18.4133 96.372 18.36C96.5986 18.3 96.8186 18.1967 97.032 18.05C97.1853 17.95 97.312 17.93 97.412 17.99C97.5186 18.05 97.572 18.1433 97.572 18.27C97.5786 18.39 97.512 18.4967 97.372 18.59C97.152 18.75 96.8886 18.8733 96.582 18.96C96.282 19.0467 95.9886 19.09 95.702 19.09ZM95.572 14.65C95.112 14.65 94.7486 14.7933 94.482 15.08C94.2153 15.3667 94.0586 15.7433 94.012 16.21H96.962C96.942 15.7167 96.812 15.3333 96.572 15.06C96.3386 14.7867 96.0053 14.65 95.572 14.65ZM100.364 19.09C100.031 19.09 99.7309 19.0267 99.4642 18.9C99.2042 18.7667 98.9976 18.5867 98.8442 18.36C98.6909 18.1333 98.6142 17.88 98.6142 17.6C98.6142 17.2467 98.7042 16.9667 98.8842 16.76C99.0709 16.5533 99.3742 16.4067 99.7942 16.32C100.221 16.2267 100.801 16.18 101.534 16.18H101.854V15.87C101.854 15.4567 101.768 15.16 101.594 14.98C101.428 14.7933 101.158 14.7 100.784 14.7C100.551 14.7 100.314 14.73 100.074 14.79C99.8409 14.85 99.5976 14.9467 99.3442 15.08C99.2309 15.14 99.1342 15.1533 99.0542 15.12C98.9809 15.08 98.9276 15.02 98.8942 14.94C98.8676 14.8533 98.8676 14.7667 98.8942 14.68C98.9276 14.5867 98.9942 14.5167 99.0942 14.47C99.3809 14.3233 99.6676 14.2167 99.9542 14.15C100.248 14.0833 100.524 14.05 100.784 14.05C101.411 14.05 101.874 14.2033 102.174 14.51C102.481 14.8167 102.634 15.2933 102.634 15.94V18.65C102.634 18.93 102.511 19.07 102.264 19.07C102.004 19.07 101.874 18.93 101.874 18.65V18.16C101.748 18.4467 101.551 18.6733 101.284 18.84C101.024 19.0067 100.718 19.09 100.364 19.09ZM100.494 18.48C100.894 18.48 101.221 18.3433 101.474 18.07C101.728 17.79 101.854 17.4367 101.854 17.01V16.71H101.544C101.004 16.71 100.578 16.7367 100.264 16.79C99.9576 16.8367 99.7409 16.9233 99.6142 17.05C99.4942 17.17 99.4342 17.3367 99.4342 17.55C99.4342 17.8233 99.5276 18.0467 99.7142 18.22C99.9076 18.3933 100.168 18.48 100.494 18.48ZM106.087 19.09C105.514 19.09 105.084 18.94 104.797 18.64C104.51 18.3333 104.367 17.8933 104.367 17.32V14.77H103.697C103.464 14.77 103.347 14.6633 103.347 14.45C103.347 14.2433 103.464 14.14 103.697 14.14H104.367V12.99C104.367 12.7167 104.504 12.58 104.777 12.58C105.044 12.58 105.177 12.7167 105.177 12.99V14.14H106.437C106.67 14.14 106.787 14.2433 106.787 14.45C106.787 14.6633 106.67 14.77 106.437 14.77H105.177V17.24C105.177 17.62 105.257 17.91 105.417 18.11C105.577 18.3033 105.837 18.4 106.197 18.4C106.324 18.4 106.43 18.3867 106.517 18.36C106.604 18.3333 106.68 18.32 106.747 18.32C106.807 18.3133 106.857 18.3333 106.897 18.38C106.937 18.4267 106.957 18.5067 106.957 18.62C106.957 18.7 106.94 18.7733 106.907 18.84C106.88 18.9067 106.83 18.9533 106.757 18.98C106.677 19.0067 106.57 19.03 106.437 19.05C106.31 19.0767 106.194 19.09 106.087 19.09ZM109.774 19.09C109.008 19.09 108.401 18.8667 107.954 18.42C107.508 17.9667 107.284 17.3533 107.284 16.58C107.284 16.08 107.384 15.64 107.584 15.26C107.784 14.8733 108.058 14.5767 108.404 14.37C108.758 14.1567 109.164 14.05 109.624 14.05C110.284 14.05 110.801 14.2633 111.174 14.69C111.548 15.11 111.734 15.69 111.734 16.43C111.734 16.6367 111.618 16.74 111.384 16.74H108.074C108.101 17.2933 108.261 17.7167 108.554 18.01C108.848 18.2967 109.254 18.44 109.774 18.44C109.994 18.44 110.218 18.4133 110.444 18.36C110.671 18.3 110.891 18.1967 111.104 18.05C111.258 17.95 111.384 17.93 111.484 17.99C111.591 18.05 111.644 18.1433 111.644 18.27C111.651 18.39 111.584 18.4967 111.444 18.59C111.224 18.75 110.961 18.8733 110.654 18.96C110.354 19.0467 110.061 19.09 109.774 19.09ZM109.644 14.65C109.184 14.65 108.821 14.7933 108.554 15.08C108.288 15.3667 108.131 15.7433 108.084 16.21H111.034C111.014 15.7167 110.884 15.3333 110.644 15.06C110.411 14.7867 110.078 14.65 109.644 14.65ZM114.756 19.09C114.323 19.09 113.943 18.9867 113.616 18.78C113.296 18.5733 113.046 18.2833 112.866 17.91C112.693 17.53 112.606 17.0833 112.606 16.57C112.606 16.05 112.693 15.6033 112.866 15.23C113.046 14.85 113.296 14.56 113.616 14.36C113.943 14.1533 114.323 14.05 114.756 14.05C115.136 14.05 115.47 14.1333 115.756 14.3C116.05 14.4667 116.266 14.6967 116.406 14.99V12.29C116.406 12.0167 116.543 11.88 116.816 11.88C117.083 11.88 117.216 12.0167 117.216 12.29V18.65C117.216 18.93 117.083 19.07 116.816 19.07C116.55 19.07 116.416 18.93 116.416 18.65V18.13C116.27 18.43 116.05 18.6667 115.756 18.84C115.47 19.0067 115.136 19.09 114.756 19.09ZM114.926 18.44C115.38 18.44 115.743 18.28 116.016 17.96C116.29 17.6333 116.426 17.17 116.426 16.57C116.426 15.9633 116.29 15.5 116.016 15.18C115.743 14.86 115.38 14.7 114.926 14.7C114.466 14.7 114.1 14.86 113.826 15.18C113.56 15.5 113.426 15.9633 113.426 16.57C113.426 17.17 113.56 17.6333 113.826 17.96C114.1 18.28 114.466 18.44 114.926 18.44Z" fill="#212529"/>
<defs>
<linearGradient id="paint0_linear_673_27191" x1="64" y1="0" x2="64" y2="32" gradientUnits="userSpaceOnUse">
<stop stop-color="#FFF8F1"/>
<stop offset="1" stop-color="#D7E8D9"/>
</linearGradient>
</defs>
</svg>
